<?xml version="1.0" standalone="no"?>
<!DOCTYPE svg PUBLIC "-//W3C//DTD SVG 20010904//EN"
 "http://www.w3.org/TR/2001/REC-SVG-20010904/DTD/svg10.dtd">
<svg version="1.0" xmlns="http://www.w3.org/2000/svg"
 width="1200.000000pt" height="1200.000000pt" viewBox="0 0 1200.000000 1200.000000"
 preserveAspectRatio="xMidYMid meet">

<g transform="translate(0.000000,1200.000000) scale(0.100000,-0.100000)"
fill="#000000" stroke="none">
<path d="M5630 9920 c-943 -90 -1761 -645 -2179 -1479 -434 -864 -371 -1899
164 -2701 114 -171 198 -274 340 -415 144 -144 245 -227 423 -346 346 -230
748 -377 1177 -430 129 -16 481 -16 610 0 602 74 1140 328 1565 738 437 421
707 946 802 1558 29 188 31 560 5 740 -88 597 -334 1104 -736 1519 -428 441
-982 721 -1586 801 -145 19 -454 27 -585 15z m607 -69 c279 -42 520 -115 768
-235 285 -138 500 -291 725 -516 454 -453 717 -1022 771 -1667 67 -799 -267
-1633 -869 -2169 -668 -595 -1563 -817 -2422 -599 -551 140 -1052 462 -1409
905 -721 896 -783 2157 -153 3112 357 539 898 933 1517 1103 138 38 319 70
470 84 146 14 447 5 602 -18z"/>
<path d="M5620 9829 c-221 -20 -505 -87 -710 -169 -359 -143 -651 -339 -925
-621 -198 -204 -337 -402 -465 -664 -309 -628 -351 -1342 -120 -2010 85 -245
255 -552 420 -760 35 -44 111 -129 169 -189 409 -421 932 -686 1526 -772 182
-27 533 -25 724 5 568 87 1067 338 1466 736 612 612 878 1474 720 2331 -94
506 -349 988 -720 1359 -549 549 -1306 823 -2085 754z m530 -80 c392 -43 779
-185 1115 -410 1168 -781 1481 -2343 705 -3511 -413 -624 -1091 -1037 -1832
-1117 -142 -16 -444 -13 -588 4 -1038 128 -1903 896 -2149 1906 -57 236 -66
319 -66 609 0 290 9 373 67 610 185 764 749 1425 1474 1726 410 170 834 231
1274 183z"/>
<path d="M5797 9638 c-59 -120 -88 -197 -113 -306 -15 -63 -20 -72 -103 -157
-69 -71 -142 -159 -178 -214 -1 -2 -53 17 -115 42 -62 25 -149 53 -193 63 -78
18 -81 20 -149 92 -74 78 -171 155 -278 221 l-68 41 0 -50 c0 -94 22 -255 51
-369 l28 -114 -19 -60 c-24 -74 -46 -181 -55 -269 l-7 -68 -32 0 c-53 0 -216
-31 -294 -55 -69 -22 -77 -22 -115 -9 -60 21 -159 42 -257 54 -88 10 -220 14
-220 5 0 -3 20 -38 45 -77 65 -105 160 -223 226 -280 55 -47 58 -53 74 -126
20 -88 57 -196 91 -263 l23 -46 -57 -39 c-31 -21 -102 -82 -157 -135 -91 -88
-105 -98 -155 -108 -30 -6 -77 -19 -105 -27 -58 -18 -325 -144 -325 -154 0 -3
51 -31 112 -63 115 -58 218 -95 321 -118 53 -11 65 -19 134 -90 41 -43 110
-104 153 -135 l78 -58 -23 -46 c-31 -61 -68 -170 -90 -258 -17 -72 -20 -76
-110 -167 -81 -81 -210 -255 -232 -311 -6 -16 3 -17 123 -11 126 7 255 30 342
61 41 15 47 14 130 -10 48 -14 139 -33 204 -42 l116 -17 7 -65 c9 -87 31 -191
56 -266 l20 -62 -20 -63 c-30 -96 -50 -214 -57 -350 l-7 -121 89 57 c120 77
202 144 271 219 53 58 63 65 118 76 82 17 198 57 265 90 l56 28 58 -78 c31
-43 93 -112 136 -154 72 -71 80 -82 91 -134 19 -92 62 -210 120 -324 29 -60
56 -108 60 -108 3 0 31 48 61 108 58 111 96 214 118 317 12 55 20 66 92 138
43 43 105 113 137 156 l58 78 44 -22 c63 -32 206 -81 277 -95 56 -11 65 -17
110 -69 58 -67 182 -167 290 -233 42 -26 77 -46 78 -45 1 1 -3 58 -7 127 -10
140 -30 259 -58 344 l-19 57 24 75 c27 84 54 227 54 284 l0 37 73 7 c87 9 180
28 264 54 l63 20 82 -24 c96 -28 278 -54 379 -54 l70 0 -37 58 c-70 109 -148
207 -225 285 -59 60 -78 86 -84 115 -12 66 -46 175 -82 260 -20 45 -34 84 -32
85 2 2 34 25 71 51 38 26 105 84 150 130 81 81 85 84 158 101 41 10 102 28
136 40 77 29 274 127 274 137 0 11 -237 124 -310 147 -36 11 -90 26 -120 32
-50 10 -62 19 -130 88 -41 43 -110 103 -153 136 -43 32 -76 63 -74 69 3 6 21
49 40 96 33 78 77 226 77 256 0 7 40 53 88 101 91 90 137 148 210 266 l42 67
-82 0 c-108 0 -261 -23 -366 -53 l-83 -24 -75 23 c-77 25 -235 54 -290 54
l-31 0 -7 78 c-6 77 -48 268 -65 301 -7 12 -3 41 15 95 32 102 52 227 56 353
l4 102 -46 -26 c-106 -61 -201 -134 -287 -220 -85 -84 -97 -92 -148 -103 -72
-15 -208 -61 -262 -89 -23 -11 -46 -21 -51 -21 -5 0 -36 35 -68 78 -32 42 -92
111 -134 152 -70 69 -77 80 -89 135 -7 33 -24 94 -38 135 -27 81 -130 290
-142 290 -4 0 -33 -51 -64 -112z m101 -165 c52 -137 52 -137 -3 -103 l-33 20
-38 -22 -37 -22 6 31 c9 44 60 173 68 173 4 0 21 -35 37 -77z m-1103 -301 l80
-67 -48 -3 c-44 -3 -49 -6 -64 -38 -9 -19 -20 -34 -24 -34 -7 0 -39 158 -39
193 0 9 3 17 8 17 4 0 43 -31 87 -68z m1001 -45 c-9 -47 -23 -102 -30 -123
-14 -38 -15 -35 -15 78 -1 116 -1 117 27 138 36 29 38 16 18 -93z m152 95 c20
-16 23 -28 29 -135 3 -64 3 -117 -1 -117 -14 0 -42 105 -60 228 -7 46 -2 50
32 24z m1070 -49 c-12 -88 -27 -145 -37 -139 -5 3 -14 19 -21 36 -12 28 -16
30 -64 30 l-51 1 35 30 c71 61 132 109 139 109 4 0 4 -30 -1 -67z m-1348 -328
c13 -77 1 -90 -42 -48 -18 17 -59 49 -91 71 l-58 40 52 69 c28 37 65 83 83
101 l31 33 7 -103 c4 -57 12 -130 18 -163z m540 109 c18 -25 30 -47 28 -48 -1
-1 -21 -16 -43 -31 -22 -16 -62 -47 -88 -69 -55 -45 -70 -38 -56 23 5 20 12
92 16 160 l6 125 53 -57 c29 -31 67 -77 84 -103z m-1222 9 c16 -21 47 -69 67
-108 l38 -70 -66 64 c-36 36 -80 84 -97 108 l-31 43 30 0 c22 0 37 -9 59 -37z
m1826 25 c-30 -53 -169 -206 -178 -197 -5 5 63 123 102 177 17 24 31 32 53 32
21 0 28 -4 23 -12z m-877 -208 c4 -22 -43 -177 -67 -220 -10 -18 -47 58 -74
153 l-17 58 34 87 c19 48 38 96 41 107 6 15 15 -1 43 -70 19 -49 37 -101 40
-115z m-761 166 c110 -37 175 -68 170 -80 -41 -95 -76 -184 -76 -193 0 -28
-22 -11 -38 29 -9 24 -42 93 -73 155 -31 62 -55 113 -54 113 1 0 33 -11 71
-24z m1410 -42 c-18 -33 -49 -95 -67 -139 -47 -114 -59 -126 -74 -68 -3 15
-22 60 -40 100 l-34 73 49 25 c50 25 192 76 198 71 1 -2 -13 -30 -32 -62z
m-1742 -31 c27 -75 56 -171 56 -187 -1 -16 -46 58 -85 137 -28 58 -32 73 -23
93 6 13 15 24 19 24 4 0 19 -30 33 -67z m2066 -53 c-39 -78 -80 -143 -85 -138
-7 7 36 149 62 208 l25 55 15 -31 c14 -29 13 -34 -17 -94z m-1437 -22 c78 -53
138 -111 132 -126 -10 -25 -89 -121 -101 -122 -14 0 -136 49 -148 60 -9 9 6
57 50 158 13 28 26 52 29 52 4 0 21 -10 38 -22z m836 -17 c26 -49 61 -142 61
-159 0 -7 -25 -24 -55 -37 -98 -44 -97 -44 -154 27 -28 34 -51 66 -51 70 0 9
161 138 172 138 4 0 16 -17 27 -39z m-1534 -83 c20 -35 61 -95 91 -134 77
-102 77 -103 -58 -84 l-113 16 3 45 c3 49 32 219 38 219 1 0 19 -28 39 -62z
m316 -36 l77 -62 16 -87 c17 -93 20 -133 10 -133 -11 0 -133 101 -159 131 -16
20 -25 43 -25 67 -1 20 -7 67 -14 105 -12 61 -12 66 3 54 9 -8 50 -42 92 -75z
m1634 4 c-8 -43 -15 -90 -15 -105 0 -28 -60 -93 -149 -161 l-44 -34 7 58 c4
31 15 86 24 122 17 62 19 66 102 132 47 38 86 68 87 67 2 -1 -4 -36 -12 -79z
m290 -43 c8 -54 15 -105 15 -113 0 -12 -22 -18 -98 -27 -54 -7 -106 -15 -115
-19 -31 -11 -19 24 26 79 24 29 65 88 92 131 57 92 59 90 80 -51z m-1275 -79
l33 -47 -66 7 c-101 10 -102 11 -61 62 41 50 42 50 94 -22z m337 22 c28 -38
30 -45 16 -50 -27 -11 -133 -19 -133 -11 0 10 72 105 80 105 3 -1 19 -20 37
-44z m336 -138 c4 -27 3 -48 -2 -48 -11 0 -111 80 -111 89 0 4 21 16 48 27
l47 20 6 -21 c3 -11 9 -41 12 -67z m-1030 65 c26 -9 47 -19 47 -22 -1 -8 -105
-91 -114 -91 -3 0 -6 12 -6 28 0 40 12 102 19 102 3 0 27 -8 54 -17z m228 -67
c41 -8 95 -18 121 -21 l48 -6 -16 -37 c-36 -81 -74 -201 -90 -285 l-17 -88
-40 48 c-56 67 -163 168 -219 206 -26 18 -48 34 -48 37 0 3 30 28 68 57 37 28
78 63 91 77 14 14 25 26 27 26 1 0 35 -6 75 -14z m643 -45 c39 -33 81 -68 94
-78 l23 -18 -64 -48 c-65 -47 -227 -210 -227 -228 0 -5 -4 -9 -8 -9 -5 0 -15
33 -22 73 -14 79 -62 231 -91 289 l-18 36 86 12 c47 7 97 16 112 20 14 5 30 9
35 9 4 1 40 -26 80 -58z m-1645 -82 c7 -56 15 -107 18 -115 10 -27 -28 -14
-80 29 -29 24 -88 65 -131 92 -91 56 -91 57 54 80 139 21 125 30 139 -86z
m249 79 c71 -12 71 -11 51 -124 l-11 -62 -79 -12 c-43 -6 -83 -9 -88 -6 -13 9
-38 175 -32 219 1 9 51 4 159 -15z m2172 5 c0 -31 -28 -204 -34 -210 -5 -6
-153 14 -166 22 -9 5 -34 165 -27 171 5 5 170 32 205 33 15 1 22 -5 22 -16z
m284 -9 c39 -8 71 -16 73 -18 2 -1 -20 -15 -48 -31 -29 -15 -90 -57 -136 -91
-47 -35 -90 -64 -97 -64 -10 0 -10 15 0 73 7 39 13 91 14 115 l0 43 63 -7 c34
-3 93 -13 131 -20z m-3295 -4 l55 -12 -42 -25 c-38 -23 -42 -28 -42 -66 l0
-41 -39 38 c-22 21 -54 59 -72 84 l-32 45 59 -6 c32 -3 83 -11 113 -17z m3836
-7 c-9 -16 -41 -55 -71 -88 l-54 -60 0 48 c0 44 -3 49 -35 69 -20 11 -34 22
-32 25 8 8 132 31 170 32 l38 1 -16 -27z m-2717 -72 c18 -10 11 -15 -73 -46
l-66 -25 6 47 c10 77 8 75 67 52 29 -11 59 -24 66 -28z m1581 -48 l1 -23 -51
21 c-66 26 -92 39 -86 46 3 2 31 15 64 28 l58 24 7 -37 c4 -20 7 -47 7 -59z
m-820 9 c38 -98 71 -260 71 -345 0 -52 -7 -79 -34 -139 -19 -41 -42 -100 -52
-131 -10 -32 -21 -54 -25 -50 -3 5 -14 33 -24 63 -10 30 -33 85 -51 122 -24
48 -34 81 -34 115 0 79 28 226 61 320 16 48 33 96 36 106 10 31 21 18 52 -61z
m-1627 27 c76 -39 141 -79 136 -85 -7 -7 -143 34 -205 62 -58 25 -58 25 -33
39 34 19 32 19 102 -16z m3273 19 c14 -6 25 -14 25 -18 0 -14 -247 -96 -257
-86 -7 7 180 113 204 116 1 0 14 -5 28 -12z m-2322 -208 c10 -61 31 -151 47
-201 17 -51 29 -93 27 -95 -1 -2 -33 8 -70 21 -77 28 -248 65 -302 65 -32 0
-36 3 -30 18 8 18 73 189 80 209 2 6 28 18 57 27 29 9 78 27 108 40 30 14 57
25 60 25 3 1 14 -49 23 -109z m1183 8 c-20 -113 -56 -231 -99 -317 -27 -55
-44 -73 -114 -125 -46 -34 -100 -75 -121 -93 l-38 -32 13 62 c7 34 15 102 19
151 7 85 9 92 55 160 26 39 69 95 96 125 49 56 192 175 200 167 2 -2 -3 -46
-11 -98z m162 83 c20 -10 69 -29 108 -41 l71 -23 18 -56 c10 -31 28 -80 41
-110 13 -29 24 -57 24 -62 0 -5 -15 -9 -34 -9 -55 0 -192 -29 -285 -60 -47
-16 -87 -28 -88 -26 -2 1 9 36 23 77 27 79 64 251 64 299 0 35 8 37 58 11z
m-2340 -97 c42 -39 74 -75 71 -78 -5 -5 -170 92 -191 113 -4 3 -11 22 -14 40
l-7 34 31 -19 c18 -10 67 -51 110 -90z m1137 66 c70 -54 182 -172 237 -250 41
-59 46 -72 53 -140 7 -79 22 -182 32 -214 4 -13 -14 -3 -53 31 -33 28 -88 70
-123 94 -58 39 -68 50 -102 124 -21 45 -49 121 -63 171 -25 86 -48 224 -38
224 3 0 28 -18 57 -40z m2265 10 c0 -33 -41 -69 -152 -129 -59 -33 -60 -33
-43 -8 15 23 179 167 191 167 2 0 4 -13 4 -30z m-3157 -72 l89 -12 57 -62 c32
-33 68 -75 80 -92 l22 -32 -23 0 c-13 0 -63 7 -113 16 -73 14 -94 22 -112 43
-116 136 -136 164 -112 157 13 -4 64 -12 112 -18z m2886 -5 c-12 -16 -44 -56
-71 -90 -37 -47 -59 -65 -86 -72 -62 -17 -182 -34 -189 -28 -7 8 35 65 101
135 41 44 55 52 85 52 20 1 65 7 101 14 36 8 69 14 73 15 5 0 -1 -11 -14 -26z
m-2514 -59 c-14 -37 -25 -68 -25 -70 0 -2 -4 -4 -9 -4 -9 0 -51 94 -51 116 0
12 25 18 87 22 l23 2 -25 -66z m2123 51 c2 -1 -9 -33 -24 -70 -30 -75 -30 -76
-70 28 l-23 59 57 -7 c31 -4 58 -8 60 -10z m-2771 -124 c37 -21 105 -54 151
-72 45 -18 82 -37 82 -41 0 -5 -10 -13 -22 -18 -13 -5 -60 -24 -106 -43 l-83
-35 -21 41 c-21 42 -80 207 -73 207 2 0 34 -17 72 -39z m3379 -37 c-37 -110
-68 -175 -80 -170 -63 28 -175 75 -190 80 -29 10 -6 27 79 59 39 15 102 45
140 66 39 22 71 38 72 37 2 -2 -8 -34 -21 -72z m-2865 -141 c-5 -10 -28 -40
-50 -67 l-41 -48 -20 47 c-29 68 -35 62 70 78 50 8 51 8 41 -10z m2415 -2 l20
-6 -21 -54 -22 -53 -46 57 c-26 31 -47 61 -47 66 0 8 73 2 116 -10z m-2094 -5
c94 -18 211 -57 288 -96 43 -22 68 -43 91 -77 18 -27 58 -80 90 -119 l58 -71
-62 13 c-34 7 -100 16 -147 19 -82 7 -88 9 -167 62 -91 60 -204 167 -253 238
l-31 45 30 0 c16 0 63 -6 103 -14z m1742 -47 c-65 -82 -171 -180 -252 -233
-62 -41 -74 -45 -152 -51 -47 -4 -113 -12 -147 -20 l-63 -13 49 57 c26 31 68
85 91 120 39 57 52 68 114 96 125 57 286 102 369 104 l38 1 -47 -61z m-2261
-47 c15 -37 27 -74 27 -82 -1 -15 -92 -94 -122 -105 -24 -9 -157 160 -139 178
12 12 173 77 191 77 9 0 26 -26 43 -68z m321 28 c35 -53 158 -183 218 -231
l48 -37 -43 -7 c-81 -13 -226 -54 -293 -85 -37 -16 -68 -30 -69 -30 -2 0 -6
29 -10 64 -3 35 -12 90 -20 122 l-13 58 45 50 c24 27 58 69 75 93 17 24 32 43
33 43 1 0 14 -18 29 -40z m2176 -76 l59 -71 -14 -84 c-8 -46 -17 -100 -20
-121 l-6 -36 -82 33 c-83 33 -202 67 -286 80 l-44 7 34 26 c66 51 139 125 201
204 l63 79 18 -23 c10 -13 45 -55 77 -94z m301 97 c66 -22 139 -59 139 -69 0
-10 -94 -133 -119 -156 -20 -19 -21 -18 -75 23 -83 64 -82 62 -56 128 31 77
39 93 49 93 4 0 32 -8 62 -19z m-3057 -205 c37 -49 63 -92 59 -96 -4 -4 -46
-2 -93 6 -47 7 -121 13 -164 13 l-79 1 24 26 c26 28 180 147 184 142 1 -2 33
-43 69 -92z m3356 45 c36 -27 81 -65 99 -85 l35 -36 -80 -1 c-43 0 -116 -6
-162 -13 -45 -6 -87 -9 -93 -5 -8 4 7 29 39 67 28 34 58 75 68 91 10 17 21 31
24 31 3 0 34 -22 70 -49z m-3025 -149 c4 -31 9 -65 12 -75 4 -16 2 -17 -15 -8
-10 5 -38 26 -60 45 l-41 34 42 35 c23 19 45 33 49 31 4 -2 10 -30 13 -62z
m2655 0 c5 -4 -29 -34 -84 -74 l-29 -22 7 67 c11 110 6 108 106 29z m-3131
-71 c14 -9 -112 -42 -212 -56 -45 -6 -48 -5 -38 13 16 31 34 40 81 45 87 7
155 7 169 -2z m1214 -35 c57 -24 123 -50 146 -57 47 -14 44 -21 -14 -39 -22
-7 -78 -30 -124 -51 -101 -47 -159 -50 -314 -18 -103 21 -257 74 -257 89 0 25
246 97 375 109 44 5 81 9 83 10 1 0 49 -19 105 -43z m1337 23 c79 -12 200 -47
272 -79 l43 -19 -60 -27 c-89 -39 -238 -75 -342 -81 -93 -6 -93 -6 -180 35
-49 22 -107 46 -130 53 -24 7 -43 15 -43 19 0 3 24 14 53 23 28 9 89 34 135
56 90 42 95 42 252 20z m1192 -12 c10 -12 18 -26 18 -30 0 -11 -74 0 -183 25
-114 28 -96 41 43 33 92 -5 107 -9 122 -28z m-4127 -47 l-26 -41 21 -28 c11
-16 20 -34 20 -40 0 -6 -42 4 -97 24 -54 19 -99 35 -100 35 -2 0 -3 4 -3 9 0
5 15 14 33 21 80 30 163 59 170 59 4 1 -4 -17 -18 -39z m728 0 c48 -18 87 -35
87 -39 0 -7 -108 -51 -176 -71 -38 -11 -47 -10 -130 23 -49 19 -98 38 -109 41
-15 6 -5 12 45 30 36 13 81 30 100 39 44 20 73 17 183 -23z m3005 21 c20 -10
63 -27 95 -37 54 -17 75 -34 41 -34 -8 0 -54 -16 -101 -36 -64 -26 -93 -33
-117 -28 -48 10 -186 64 -186 73 0 15 166 79 208 80 12 1 39 -7 60 -18z m660
-28 c34 -14 62 -28 62 -32 0 -7 -92 -45 -167 -69 -39 -13 -40 -10 -12 34 l21
34 -21 34 c-12 18 -21 36 -21 39 0 8 65 -11 138 -40z m-4178 -93 c36 -6 92
-18 125 -28 56 -15 58 -17 30 -23 -42 -8 -197 2 -213 14 -7 6 -18 19 -23 29
-12 22 -9 22 81 8z m3930 3 c0 -5 -8 -18 -18 -29 -14 -18 -31 -22 -107 -26
-49 -3 -103 -2 -120 2 -25 5 -15 10 65 28 152 34 180 38 180 25z m-3137 -39
c53 -28 196 -73 280 -89 45 -8 82 -17 83 -18 2 -2 -26 -28 -62 -58 -60 -51
-200 -206 -211 -236 -8 -21 -18 -16 -51 30 -17 24 -51 66 -76 94 -41 45 -45
53 -37 80 5 17 15 72 21 122 7 50 15 91 17 91 2 0 18 -7 36 -16z m2301 -16 c3
-18 12 -73 20 -122 l15 -89 -52 -61 c-29 -34 -63 -77 -77 -95 l-25 -32 -71 88
c-38 48 -104 117 -146 153 l-75 65 36 8 c142 32 239 61 293 86 35 16 66 30 70
30 4 1 9 -14 12 -31z m-2438 5 c-2 -10 -7 -44 -11 -75 -3 -32 -10 -60 -13 -62
-4 -2 -26 12 -50 32 l-43 37 53 42 c58 46 72 52 64 26z m2619 -47 c17 -13 28
-26 25 -28 -3 -2 -24 -19 -47 -36 l-41 -32 -11 50 c-6 28 -11 65 -11 81 l0 30
28 -20 c15 -11 41 -31 57 -45z m-1705 -76 c-27 -34 -68 -88 -90 -120 -46 -67
-98 -99 -236 -146 -125 -42 -280 -67 -272 -44 9 28 139 167 206 221 120 97
137 105 227 113 62 6 195 27 213 35 1 0 -20 -26 -48 -59z m735 41 c28 -5 87
-13 133 -16 78 -7 87 -10 152 -56 88 -62 182 -150 243 -228 l48 -61 -31 0
c-80 0 -295 62 -401 115 -31 16 -56 40 -82 79 -20 31 -62 86 -93 122 -35 40
-49 64 -38 60 11 -3 42 -10 69 -15z m-1930 -1 c4 -6 -11 -32 -33 -58 -21 -26
-52 -66 -67 -90 -28 -42 -28 -42 -54 -26 -39 25 -144 109 -164 131 -17 20 -16
20 100 27 65 3 134 10 153 15 49 12 58 12 65 1z m3225 -10 c41 -5 104 -10 139
-10 l65 0 -35 -36 c-37 -38 -168 -139 -173 -133 -1 2 -18 26 -36 54 -19 27
-49 66 -68 87 -37 41 -35 62 6 53 15 -3 61 -10 102 -15z m-3054 -103 c29 -23
53 -48 54 -55 1 -30 -55 -152 -70 -152 -24 1 -193 74 -197 85 -2 6 26 48 63
94 48 60 70 81 82 76 8 -3 39 -25 68 -48z m2871 9 c22 -25 52 -63 68 -86 28
-41 29 -43 10 -56 -29 -21 -176 -76 -190 -70 -15 5 -67 144 -59 157 8 13 117
99 126 99 3 0 24 -20 45 -44z m-1682 -81 c-7 -38 -16 -105 -20 -148 -6 -68
-12 -85 -46 -137 -52 -76 -166 -199 -240 -256 -32 -24 -59 -44 -62 -44 -2 0 0
30 5 68 12 96 53 233 97 327 35 76 43 85 107 128 38 26 92 66 119 91 28 24 51
43 52 42 0 0 -5 -32 -12 -71z m518 -50 c71 -52 86 -69 114 -125 18 -36 44
-102 58 -147 26 -80 59 -252 50 -261 -7 -8 -131 96 -190 159 -31 34 -78 92
-104 130 -46 65 -48 72 -55 156 -4 48 -12 116 -19 150 l-13 62 38 -32 c21 -18
75 -59 121 -92z m-314 23 c7 -23 31 -80 52 -126 33 -71 39 -95 39 -149 0 -85
-33 -247 -71 -345 -31 -79 -42 -92 -52 -60 -3 9 -20 57 -36 105 -33 94 -61
241 -61 320 0 34 9 66 34 115 18 37 42 93 52 125 10 31 21 57 24 57 4 0 12
-19 19 -42z m-1207 -88 c51 -66 54 -72 26 -66 -12 3 -44 8 -70 11 -27 3 -48
10 -48 15 0 22 42 102 49 94 4 -5 23 -29 43 -54z m2470 -47 c-22 -8 -132 -18
-132 -13 0 9 35 55 69 93 l25 27 22 -52 c12 -29 19 -54 16 -55z m-2752 -44
c64 -19 58 -26 -64 -76 -44 -18 -106 -49 -139 -68 -32 -19 -60 -35 -62 -35 -7
0 35 125 64 185 l30 65 66 -30 c36 -16 83 -35 105 -41z m3150 -6 c25 -61 59
-157 60 -170 0 -2 -42 19 -92 46 -51 27 -115 57 -143 66 -27 10 -57 24 -64 31
-13 12 -11 15 15 24 16 6 63 26 104 44 41 19 78 34 82 35 3 1 20 -33 38 -76z
m-2240 23 c0 -3 -14 -45 -30 -95 -17 -49 -37 -138 -47 -198 -9 -59 -17 -109
-18 -111 -1 -1 -26 8 -56 22 -30 13 -80 32 -113 42 -32 10 -60 23 -62 29 -5
17 -70 189 -79 208 -6 14 -2 17 30 17 54 0 224 37 297 64 68 26 78 28 78 22z
m1228 -31 c82 -27 217 -55 268 -55 39 0 41 -7 15 -58 -10 -20 -29 -69 -42
-109 -20 -65 -26 -73 -53 -79 -17 -3 -69 -22 -115 -40 -47 -19 -86 -34 -87
-34 0 0 -4 30 -8 66 -9 83 -31 179 -62 268 -29 83 -28 80 -6 71 9 -3 50 -17
90 -30z m-1829 -97 c-12 -17 -49 -60 -82 -95 -49 -52 -65 -63 -91 -63 -32 0
-133 -16 -169 -26 -14 -5 72 114 124 171 11 11 160 43 207 44 l33 1 -22 -32z
m2486 6 c47 -12 65 -22 78 -42 8 -15 38 -54 66 -86 28 -33 50 -61 48 -62 -1
-1 -33 4 -72 12 -38 7 -86 13 -105 14 -29 0 -44 8 -76 43 -51 53 -114 132
-114 142 0 10 97 -1 175 -21z m-239 -79 c13 -31 24 -62 24 -69 0 -9 -19 -16
-56 -20 -31 -4 -58 -5 -60 -4 -4 4 57 148 63 148 2 0 15 -25 29 -55z m-2102
-22 c14 -37 24 -68 22 -70 -9 -10 -106 11 -106 22 0 19 42 115 50 115 5 0 20
-30 34 -67z m847 -133 c11 -47 35 -121 54 -165 l33 -80 -51 -8 c-29 -5 -83
-15 -121 -23 l-68 -14 -51 46 c-28 25 -70 59 -94 76 -24 17 -43 34 -43 38 0 3
12 13 28 22 46 28 156 129 218 200 l59 68 8 -38 c4 -20 17 -75 28 -122z m618
-80 c33 -25 60 -48 61 -52 0 -4 -15 -17 -32 -30 -18 -12 -60 -46 -94 -74 l-61
-52 -64 13 c-35 7 -89 16 -120 20 l-57 7 28 62 c35 77 76 217 85 290 l7 56 93
-98 c51 -53 120 -117 154 -142z m-2035 189 c-41 -43 -175 -151 -181 -145 -13
13 11 66 40 86 49 37 160 100 166 95 2 -3 -9 -19 -25 -36z m3310 -56 c37 -27
46 -39 46 -64 l0 -30 -43 31 c-24 17 -72 60 -108 97 l-64 66 62 -34 c34 -18
82 -48 107 -66z m-2957 -87 c-3 -8 -11 -59 -18 -114 l-12 -101 -51 5 c-67 7
-198 33 -205 41 -3 3 0 8 8 11 23 8 216 140 231 156 16 20 54 22 47 2z m245
-3 c24 -5 27 -12 37 -67 20 -114 21 -113 -56 -125 -38 -6 -88 -12 -113 -13
l-45 -3 3 40 c1 22 8 73 14 114 l11 73 61 -7 c34 -3 73 -9 88 -12z m2131 -5
c12 -49 28 -189 22 -197 -6 -10 -27 -8 -153 11 l-73 11 6 52 c15 120 15 119
75 132 90 18 117 16 123 -9z m195 -37 c42 -32 104 -73 136 -92 l60 -33 -49
-13 c-57 -14 -206 -33 -216 -28 -3 3 -9 33 -12 67 -3 35 -9 84 -13 111 -5 33
-3 47 5 47 6 0 46 -26 89 -59z m-2802 24 c-11 -8 -59 -35 -107 -60 -78 -40
-91 -44 -113 -34 -14 7 -26 15 -26 18 0 9 84 42 170 68 89 26 102 27 76 8z
m2969 4 c73 -20 205 -71 205 -78 0 -4 -11 -13 -26 -19 -21 -10 -33 -8 -84 17
-32 16 -79 41 -104 56 -64 37 -62 43 9 24z m-3339 -126 c19 -9 34 -20 34 -23
0 -8 -85 -28 -157 -37 -66 -7 -67 -11 21 95 l61 73 3 -46 c3 -41 7 -48 38 -62z
m1118 47 c9 -9 -58 -43 -110 -56 -21 -5 -24 -3 -24 24 0 16 -3 44 -6 61 l-7
32 69 -26 c38 -14 73 -30 78 -35z m1571 -3 l-7 -55 -37 13 c-53 19 -91 37 -91
44 0 8 133 61 138 56 2 -2 1 -28 -3 -58z m1100 -26 c30 -38 55 -71 55 -75 0
-10 -55 -7 -131 9 -40 9 -74 17 -76 19 -2 2 12 14 31 26 33 20 36 26 36 67 0
55 3 53 85 -46z m-1404 -131 c-6 -34 -12 -65 -15 -67 -7 -7 -96 28 -96 38 0
10 112 100 117 95 2 -2 -1 -32 -6 -66z m233 -31 l61 -57 13 -88 c6 -49 15
-100 19 -114 6 -21 -1 -18 -53 26 -32 28 -73 61 -91 72 -26 19 -34 34 -47 90
-8 37 -18 91 -22 121 l-7 55 33 -24 c18 -13 61 -49 94 -81z m-1444 66 c0 -41
-30 -178 -43 -197 -23 -31 -179 -151 -173 -132 11 36 26 127 26 159 0 18 10
44 22 60 24 31 148 135 160 135 4 0 8 -11 8 -25z m176 -17 c30 -24 54 -45 54
-48 0 -8 -100 -44 -105 -38 -8 8 -18 128 -11 128 4 0 32 -19 62 -42z m-518
-150 c-35 -46 -74 -104 -88 -130 -14 -27 -28 -48 -32 -48 -5 0 -8 1 -8 3 0 1
-6 36 -14 77 -8 41 -16 98 -17 125 l-3 50 109 15 c83 11 111 12 113 3 2 -6
-25 -49 -60 -95z m2074 90 c77 -9 98 -15 98 -27 0 -34 -30 -213 -38 -227 -7
-12 -18 0 -50 53 -23 38 -64 96 -92 131 -51 63 -65 100 -33 88 9 -4 60 -12
115 -18z m-1181 -45 c-11 -16 -31 -41 -44 -57 l-23 -29 -33 42 c-44 55 -31 66
77 70 l43 1 -20 -27z m351 11 c7 -5 -51 -93 -62 -93 -7 0 -74 86 -79 101 -3 8
15 9 64 4 38 -4 72 -9 77 -12z m-544 -88 c23 -30 45 -61 48 -69 8 -22 -155
-155 -175 -143 -12 8 -70 155 -73 185 -3 22 5 28 62 53 36 15 72 28 80 28 8 0
34 -24 58 -54z m363 -88 c23 -70 24 -90 3 -131 -9 -17 -27 -61 -39 -97 -18
-52 -24 -61 -30 -45 -4 11 -23 59 -42 107 l-34 87 17 58 c9 32 28 83 41 113
l25 55 20 -45 c11 -25 28 -71 39 -102z m379 115 c39 -15 70 -32 70 -39 0 -32
-72 -204 -86 -204 -8 0 -150 108 -164 125 -10 12 -8 22 15 52 38 52 77 93 87
93 5 0 40 -12 78 -27z m-995 -185 c22 -56 41 -105 43 -108 3 -8 -122 -62 -195
-83 l-52 -16 48 92 c27 51 57 115 67 142 18 51 32 75 43 75 3 0 24 -46 46
-102z m1195 45 c24 -63 96 -212 111 -227 33 -35 -50 -15 -169 40 l-73 33 21
40 c17 35 42 94 63 154 11 30 25 18 47 -40z m-1615 -30 c-22 -78 -67 -193 -75
-193 -4 0 -12 12 -18 26 -11 22 -8 34 24 97 45 90 75 139 81 133 3 -2 -3 -31
-12 -63z m2009 -44 c47 -88 48 -92 34 -123 l-15 -31 -15 30 c-19 38 -55 142
-67 195 -13 60 6 39 63 -71z m-1220 -5 c-1 -10 -6 -63 -13 -116 -6 -54 -11
-121 -11 -149 l0 -52 -26 24 c-14 13 -53 59 -85 102 l-59 78 79 59 c43 32 82
63 86 70 10 17 30 6 29 -16z m435 -12 c25 -22 65 -52 89 -67 23 -15 42 -30 42
-33 0 -10 -100 -139 -133 -170 l-34 -33 -6 123 c-4 68 -11 139 -15 158 -8 34
-6 60 5 60 3 0 26 -17 52 -38z m-1050 -41 c-61 -110 -96 -151 -130 -151 l-30
0 32 45 c35 49 143 165 154 165 3 0 -8 -27 -26 -59z m1637 7 c59 -63 124 -143
124 -152 0 -11 -46 -6 -62 7 -31 24 -136 197 -120 197 5 0 31 -24 58 -52z
m-900 -285 c20 -109 18 -122 -18 -93 -28 21 -28 22 -27 138 0 113 1 116 15 78
7 -21 21 -76 30 -123z m184 93 c0 -29 -3 -80 -6 -113 -6 -53 -10 -62 -36 -77
l-28 -17 6 43 c5 37 22 121 41 205 9 39 23 14 23 -41z m-1217 -30 c15 -32 21
-35 64 -38 l47 -3 -69 -58 c-39 -32 -79 -63 -89 -69 -18 -10 -19 -7 -12 46 9
79 26 156 35 156 4 0 15 -15 24 -34z m2251 -83 c7 -49 12 -90 10 -92 -5 -6
-97 65 -133 103 l-35 36 42 0 c38 0 45 4 64 36 27 46 34 34 52 -83z m-1183
-224 l29 -21 34 21 c18 12 36 21 39 21 3 0 1 -17 -5 -37 -15 -57 -59 -163 -67
-163 -8 0 -59 130 -68 171 -7 34 -1 36 38 8z"/>
<path d="M3551 4475 c-22 -24 -41 -49 -41 -54 0 -16 79 -79 108 -86 22 -5 33
0 64 34 21 22 38 49 38 60 0 23 -83 91 -110 91 -10 0 -36 -20 -59 -45z"/>
<path d="M4913 4187 c-58 -80 -292 -349 -308 -354 -5 -1 -77 92 -160 207 -109
153 -154 209 -165 204 -23 -9 -130 -24 -177 -24 -30 0 -43 -4 -43 -14 0 -9 16
-17 43 -21 57 -10 107 -63 270 -288 l129 -177 -134 -147 c-73 -81 -186 -204
-250 -275 -147 -159 -151 -173 -35 -119 63 29 126 89 396 374 45 49 84 87 85
85 17 -26 236 -300 279 -350 56 -65 60 -68 152 -98 52 -16 102 -30 110 -30 23
0 18 16 -10 34 -13 9 -40 32 -60 52 -30 30 -216 273 -338 441 l-38 52 73 78
c216 230 241 262 249 316 12 82 11 127 -3 126 -7 0 -37 -33 -65 -72z"/>
<path d="M3707 4244 c-3 -4 -61 -9 -128 -13 -123 -6 -166 -22 -96 -35 19 -3
45 -18 58 -32 l24 -26 3 -331 c2 -183 -1 -397 -6 -477 -5 -80 -8 -147 -6 -149
2 -2 27 6 56 17 29 12 63 22 75 24 l22 3 3 513 c2 281 3 512 2 512 0 0 -3 -3
-7 -6z"/>
<path d="M5702 4240 c-258 -36 -443 -180 -497 -385 -19 -74 -19 -232 -1 -302
52 -196 196 -331 388 -363 229 -39 531 75 642 242 131 197 122 520 -18 675
-40 45 -125 94 -204 117 -66 19 -227 28 -310 16z m220 -79 c116 -45 208 -161
237 -299 15 -73 14 -203 -3 -284 -31 -144 -116 -253 -231 -298 -84 -33 -225
-33 -308 -1 -126 49 -211 152 -248 300 -29 114 -24 286 11 374 42 107 136 190
250 222 78 21 218 15 292 -14z"/>
<path d="M6601 4241 c-113 -6 -137 -20 -71 -40 69 -21 70 -25 69 -458 0 -208
-4 -416 -8 -463 -4 -47 -5 -88 -1 -93 3 -4 33 2 65 13 32 11 65 20 74 20 14 0
16 25 12 229 l-3 229 43 6 c113 15 99 23 179 -99 166 -251 282 -389 338 -404
58 -16 172 -28 177 -20 3 4 -17 23 -44 42 -27 20 -76 71 -110 115 -71 94 -281
407 -281 419 0 4 23 22 51 38 61 36 125 103 146 153 21 49 21 138 0 179 -62
118 -236 155 -636 134z m337 -66 c58 -18 107 -49 136 -88 18 -24 21 -43 21
-116 0 -78 -3 -92 -27 -128 -43 -65 -115 -95 -230 -97 l-93 -1 -3 229 -2 229
74 -7 c41 -4 97 -13 124 -21z"/>
<path d="M8013 4218 c-20 -21 -37 -53 -46 -88 -37 -143 -282 -664 -401 -854
-31 -48 -56 -90 -56 -93 0 -2 28 -3 62 -1 l62 3 46 110 c56 134 84 187 104
204 15 12 381 53 398 44 3 -2 32 -51 64 -111 31 -59 75 -135 96 -169 35 -56
45 -64 90 -78 69 -20 118 -29 118 -20 0 4 -16 25 -35 46 -42 47 -120 201 -249
492 -87 196 -189 446 -213 520 l-8 28 -32 -33z m66 -412 c45 -109 79 -201 76
-205 -8 -8 -321 -8 -329 0 -3 3 28 86 69 185 96 229 95 227 99 223 2 -2 41
-93 85 -203z"/>
<path d="M5285 2869 c-816 -33 -1612 -123 -2320 -264 -286 -57 -660 -144 -652
-152 3 -2 63 7 134 21 2118 421 4988 421 7106 0 71 -14 131 -23 133 -21 6 6
-401 105 -596 146 -736 152 -1482 237 -2370 271 -303 11 -1138 11 -1435 -1z"/>
<path d="M4130 2525 c0 -33 -4 -45 -15 -45 -10 0 -15 -10 -15 -30 0 -20 5 -30
15 -30 12 0 15 -19 15 -110 l0 -110 30 0 30 0 0 110 0 110 26 0 c22 0 25 4 22
28 -2 19 -9 28 -25 30 -20 3 -23 9 -23 48 0 42 -1 44 -30 44 -29 0 -30 -2 -30
-45z"/>
<path d="M5680 2525 c0 -33 -4 -45 -15 -45 -10 0 -15 -10 -15 -30 0 -20 5 -30
15 -30 12 0 15 -19 15 -110 l0 -110 30 0 30 0 0 110 0 110 26 0 c22 0 25 4 22
28 -2 19 -9 28 -25 30 -20 3 -23 9 -23 48 0 42 -1 44 -30 44 -29 0 -30 -2 -30
-45z"/>
<path d="M3512 2460 c-42 -26 -66 -80 -59 -138 6 -55 32 -91 82 -116 37 -18
41 -19 84 -3 27 10 47 12 49 7 2 -6 17 -10 33 -10 l29 0 0 140 0 140 -30 0
c-21 0 -30 -5 -30 -16 0 -15 -2 -15 -25 0 -33 22 -93 20 -133 -4z m141 -61
c26 -32 22 -94 -8 -124 -64 -65 -157 13 -120 101 7 17 21 37 32 43 25 16 75 5
96 -20z"/>
<path d="M3810 2371 c0 -93 3 -112 20 -134 45 -57 145 -57 189 0 18 22 21 40
21 134 l0 109 -30 0 -30 0 0 -99 c0 -108 -10 -131 -54 -131 -44 0 -56 28 -56
133 l0 97 -30 0 -30 0 0 -109z"/>
<path d="M4333 2461 c-43 -27 -63 -69 -63 -132 0 -46 4 -55 38 -89 51 -52 105
-61 170 -28 38 19 50 32 66 69 24 60 16 109 -28 157 -30 32 -39 36 -92 39 -46
3 -66 0 -91 -16z m140 -62 c10 -13 17 -38 17 -64 0 -35 -5 -48 -26 -64 -76
-60 -164 21 -123 113 22 49 96 57 132 15z"/>
<path d="M4770 2275 l0 -205 30 0 30 0 0 79 0 79 38 -20 c42 -22 79 -18 122
12 29 21 60 84 60 123 -1 40 -37 105 -69 121 -38 20 -100 20 -129 0 -20 -14
-22 -14 -22 0 0 11 -10 16 -30 16 l-30 0 0 -205z m185 130 c53 -52 19 -155
-50 -155 -80 0 -106 140 -32 170 37 15 57 11 82 -15z"/>
<path d="M5145 2447 c-78 -78 -47 -218 54 -248 30 -9 44 -8 76 5 26 11 41 13
43 6 2 -5 17 -10 33 -10 l29 0 0 140 0 140 -30 0 c-21 0 -30 -5 -30 -16 0 -15
-2 -15 -25 0 -13 9 -45 16 -71 16 -39 0 -51 -5 -79 -33z m128 -28 c51 -23 63
-104 22 -144 -43 -44 -105 -29 -125 29 -14 44 -4 81 27 106 29 23 42 24 76 9z"/>
<path d="M5460 2340 l0 -140 30 0 30 0 0 93 c0 110 10 132 59 125 24 -4 34 0
42 14 6 11 8 26 5 34 -6 16 -58 19 -87 4 -13 -7 -19 -7 -19 0 0 5 -13 10 -30
10 l-30 0 0 -140z"/>
<path d="M5850 2460 c-20 -20 -26 -63 -14 -95 4 -9 29 -27 56 -41 39 -20 49
-29 46 -47 -4 -27 -34 -34 -57 -13 -17 16 -61 12 -61 -6 0 -23 23 -47 54 -58
42 -13 78 -5 104 23 49 54 35 105 -38 142 -48 24 -62 46 -40 60 6 4 18 1 26
-6 11 -9 20 -9 41 0 l26 12 -23 24 c-30 32 -91 34 -120 5z"/>
<path d="M6263 2460 c-42 -25 -63 -68 -63 -125 0 -84 54 -138 140 -139 67 -1
80 7 80 50 0 36 0 36 -25 20 -58 -38 -123 -9 -132 61 -5 38 -2 45 26 74 27 26
37 30 63 25 18 -3 40 -14 50 -23 17 -15 18 -14 18 24 0 47 -9 53 -78 53 -29 0
-59 -8 -79 -20z"/>
<path d="M6535 2460 c-121 -79 -65 -264 80 -264 112 0 178 107 129 210 -33 70
-142 98 -209 54z m128 -50 c31 -25 41 -62 27 -106 -13 -38 -35 -54 -75 -54
-14 0 -35 4 -45 10 -24 13 -43 70 -34 104 8 32 49 66 79 66 12 0 34 -9 48 -20z"/>
<path d="M6830 2340 l0 -140 30 0 30 0 0 93 c0 98 14 137 49 137 34 0 41 -21
41 -127 l0 -103 35 0 35 0 0 98 c0 83 3 102 18 115 23 21 36 21 56 1 12 -12
16 -38 16 -115 l0 -99 30 0 30 0 0 115 c0 110 -1 117 -25 140 -29 30 -88 34
-123 9 -21 -15 -25 -15 -41 0 -20 18 -73 21 -102 6 -13 -7 -19 -7 -19 0 0 5
-13 10 -30 10 l-30 0 0 -140z"/>
<path d="M7287 2473 c-4 -3 -7 -96 -7 -205 l0 -198 30 0 30 0 0 79 0 79 38
-20 c85 -44 182 26 182 133 0 106 -100 171 -190 124 -27 -14 -30 -14 -30 0 0
15 -40 22 -53 8z m176 -63 c31 -25 41 -62 27 -106 -28 -85 -135 -68 -147 23
-5 37 -2 46 25 73 35 35 59 38 95 10z"/>
<path d="M7678 2464 c-32 -17 -53 -53 -63 -106 -9 -46 22 -119 61 -145 38 -24
106 -24 133 1 19 17 21 17 21 3 0 -12 9 -17 30 -17 l30 0 0 140 0 140 -30 0
c-20 0 -30 -5 -30 -16 0 -14 -2 -14 -22 0 -28 20 -94 20 -130 0z m127 -59 c54
-53 21 -155 -51 -155 -79 0 -105 140 -31 170 37 15 57 11 82 -15z"/>
<path d="M7970 2340 l0 -140 29 0 29 0 4 95 c3 82 6 97 25 117 19 18 27 20 50
12 28 -9 28 -10 33 -114 l5 -105 34 -3 33 -3 -3 116 c-4 114 -5 118 -32 141
-31 26 -84 32 -120 13 -16 -9 -22 -9 -25 0 -2 6 -17 11 -33 11 l-29 0 0 -140z"/>
<path d="M8260 2470 c0 -6 25 -57 56 -113 l56 -101 -46 -93 -46 -93 35 0 34 0
98 192 c54 106 99 198 101 205 2 9 -7 13 -27 13 -29 0 -34 -6 -68 -75 -21 -41
-41 -74 -46 -72 -5 1 -25 34 -45 72 -33 63 -40 70 -69 73 -20 2 -33 -1 -33 -8z"/>
<path d="M2278 2443 c7 -3 16 -2 19 1 4 3 -2 6 -13 5 -11 0 -14 -3 -6 -6z"/>
<path d="M9708 2443 c7 -3 16 -2 19 1 4 3 -2 6 -13 5 -11 0 -14 -3 -6 -6z"/>
<path d="M2238 2433 c7 -3 16 -2 19 1 4 3 -2 6 -13 5 -11 0 -14 -3 -6 -6z"/>
<path d="M9748 2433 c7 -3 16 -2 19 1 4 3 -2 6 -13 5 -11 0 -14 -3 -6 -6z"/>
</g>
</svg>
